<svg width="87" height="91" viewBox="0 0 87 91" fill="none" xmlns="http://www.w3.org/2000/svg">
<path d="M80.3188 0.493164H6.64371C3.26782 0.493164 0.524902 3.40672 0.524902 6.98336V84.0218C0.524902 87.5985 3.26782 90.512 6.64371 90.512H80.3188C83.6947 90.512 86.4568 87.5985 86.4568 84.0218V6.98336C86.4568 3.40672 83.6947 0.493164 80.3188 0.493164ZM26.4963 77.6522H13.7599V34.6923H26.5155V77.6522H26.4963ZM20.1281 28.825C16.0425 28.825 12.7433 25.3488 12.7433 21.089C12.7433 16.8292 16.0425 13.353 20.1281 13.353C24.1945 13.353 27.5129 16.8292 27.5129 21.089C27.5129 25.3689 24.2137 28.825 20.1281 28.825ZM74.2383 77.6522H61.502V56.755C61.502 51.7718 61.4061 45.3619 54.8845 45.3619C48.2478 45.3619 47.2312 50.7872 47.2312 56.3933V77.6522H34.4948V34.6923H46.7133V40.5596H46.8859C48.593 37.1839 52.7554 33.6273 58.9509 33.6273C71.8407 33.6273 74.2383 42.5288 74.2383 54.1026V77.6522Z" fill="black"/>
</svg>
