<svg width="89" height="88" viewBox="0 0 89 88" fill="none" xmlns="http://www.w3.org/2000/svg">
<path d="M44.7411 21.7758C32.2807 21.7758 22.23 31.7964 22.23 44.2197C22.23 56.6429 32.2807 66.6635 44.7411 66.6635C57.2015 66.6635 67.2521 56.6429 67.2521 44.2197C67.2521 31.7964 57.2015 21.7758 44.7411 21.7758ZM44.7411 58.8111C36.6888 58.8111 30.106 52.2674 30.106 44.2197C30.106 36.1719 36.6692 29.6282 44.7411 29.6282C52.8129 29.6282 59.3762 36.1719 59.3762 44.2197C59.3762 52.2674 52.7933 58.8111 44.7411 58.8111ZM73.4236 20.8577C73.4236 23.7682 71.0725 26.0927 68.173 26.0927C65.2538 26.0927 62.9223 23.7487 62.9223 20.8577C62.9223 17.9668 65.2734 15.6228 68.173 15.6228C71.0725 15.6228 73.4236 17.9668 73.4236 20.8577ZM88.333 26.1708C87.9999 19.1583 86.3934 12.9467 81.2407 7.82894C76.1076 2.71119 69.8774 1.10945 62.844 0.757846C55.595 0.347645 33.8676 0.347645 26.6186 0.757846C19.6047 1.08991 13.3745 2.69165 8.22187 7.8094C3.06921 12.9272 1.48227 19.1388 1.12962 26.1513C0.718188 33.3786 0.718188 55.0411 1.12962 62.2685C1.46268 69.281 3.06921 75.4926 8.22187 80.6104C13.3745 85.7281 19.5851 87.3298 26.6186 87.6815C33.8676 88.0917 55.595 88.0917 62.844 87.6815C69.8774 87.3494 76.1076 85.7477 81.2407 80.6104C86.3738 75.4926 87.9803 69.281 88.333 62.2685C88.7444 55.0411 88.7444 33.3982 88.333 26.1708ZM78.9681 70.0233C77.4399 73.8518 74.4815 76.8014 70.6219 78.3445C64.8423 80.6299 51.128 80.1025 44.7411 80.1025C38.3541 80.1025 24.6202 80.6104 18.8602 78.3445C15.0202 76.8209 12.0619 73.8713 10.5141 70.0233C8.22187 64.2609 8.75085 50.5875 8.75085 44.2197C8.75085 37.8518 8.24146 24.1589 10.5141 18.416C12.0423 14.5875 15.0006 11.6379 18.8602 10.0948C24.6398 7.8094 38.3541 8.3368 44.7411 8.3368C51.128 8.3368 64.8619 7.82893 70.6219 10.0948C74.4619 11.6184 77.4203 14.568 78.9681 18.416C81.2603 24.1784 80.7313 37.8518 80.7313 44.2197C80.7313 50.5875 81.2603 64.2804 78.9681 70.0233Z" fill="black"/>
</svg>
